<?xml version="1.0" encoding="UTF-8"?>
<svg version="1.1" xmlns="http://www.w3.org/2000/svg" width="45" height="45">
<path d="M0 0 C3.81433947 1.46437445 5.03248678 3.26338032 6.91015625 6.83203125 C7.42513672 7.79560547 7.94011719 8.75917969 8.47070312 9.75195312 C8.99599609 10.76193359 9.52128906 11.77191406 10.0625 12.8125 C11.11515312 14.79856539 12.16851557 16.78425501 13.22265625 18.76953125 C13.68422119 19.65229736 14.14578613 20.53506348 14.62133789 21.44458008 C16.00681201 24.01262641 17.47994912 26.50966817 19 29 C19.99 27.68 20.98 26.36 22 25 C21.39671875 23.9378125 20.7934375 22.875625 20.171875 21.78125 C19.36447951 20.35422541 18.55719372 18.92713874 17.75 17.5 C17.35425781 16.80390625 16.95851563 16.1078125 16.55078125 15.390625 C13.8800597 10.66213439 11.39351473 5.87486486 9 1 C11.76708094 -1.76708094 20.08713768 -0.28498625 23.8125 -0.3125 C25.75866211 -0.35600586 25.75866211 -0.35600586 27.74414062 -0.40039062 C28.99001953 -0.40876953 30.23589844 -0.41714844 31.51953125 -0.42578125 C32.66526611 -0.44036377 33.81100098 -0.45494629 34.99145508 -0.4699707 C38.59647244 0.09317613 39.74445537 1.20931161 42 4 C41.67 4.99 41.34 5.98 41 7 C34.4 7 27.8 7 21 7 C21 7.66 21 8.32 21 9 C26.28 9 31.56 9 37 9 C38 12 38 12 37.25 14.125 C36 16 36 16 33 17 C30.6593935 16.72230092 28.32375692 16.39460023 26 16 C27.65 18.97 29.3 21.94 31 25 C29.625 27.5 29.625 27.5 28 30 C27.34 30 26.68 30 26 30 C25.9071875 31.0828125 25.9071875 31.0828125 25.8125 32.1875 C24.75543353 35.84657625 22.79449929 37.49211602 20 40 C16.64087637 38.60456106 15.12904673 37.17999861 13.1875 34.125 C12.67574219 33.320625 12.16398438 32.51625 11.63671875 31.6875 C8.68079161 26.83385353 5.814044 21.93713969 3 17 C2.401875 15.98679687 1.80375 14.97359375 1.1875 13.9296875 C0.3521875 12.47949219 0.3521875 12.47949219 -0.5 11 C-1.25796875 9.700625 -1.25796875 9.700625 -2.03125 8.375 C-3 6 -3 6 -2.78125 3.8125 C-2 2 -2 2 0 0 Z " fill="#CF1B70" transform="translate(3,3)"/>
<path d="M0 0 C1.32 0.66 2.64 1.32 4 2 C4 2.66 4 3.32 4 4 C2.824375 4.2165625 2.824375 4.2165625 1.625 4.4375 C-0.96421018 4.87798925 -0.96421018 4.87798925 -3 6 C-1.125 1.125 -1.125 1.125 0 0 Z " fill="#CB2E60" transform="translate(25,29)"/>
</svg>
